<svg xmlns="http://www.w3.org/2000/svg" width="42.579" height="34.764" viewBox="0 0 42.579 34.764">
  <path id="Path_43" data-name="Path 43" d="M474.246,158.129a7.561,7.561,0,0,1,4.271,7.4c-.046,1.245-.066,2.5,0,3.741a6.349,6.349,0,0,1-2.766,5.582,20.491,20.491,0,0,1-8.172,3.616,43.659,43.659,0,0,1-23.263-.742,13.774,13.774,0,0,1-7.131-4.444,5.574,5.574,0,0,1-1.223-3.615c.025-1.328.055-2.659,0-3.985a7.633,7.633,0,0,1,4.322-7.582,5.166,5.166,0,0,1-1.223-4.957,5.336,5.336,0,0,1,2.024-2.875,5.277,5.277,0,0,1,6.674.362c1.541,1.5,2.806,4.005.449,7.409.405-.068.752-.024.848-.16a10.7,10.7,0,0,1,3.667-3.239,6.034,6.034,0,0,1-1.158-5.243,5.838,5.838,0,0,1,9.544-3.013,6.02,6.02,0,0,1,.722,8.175c.758.6,1.543,1.163,2.263,1.806.459.41.8.953,1.238,1.394a1.047,1.047,0,0,0,.761.206,5.682,5.682,0,0,1-.988-4.672,5.264,5.264,0,0,1,1.937-2.931,5.326,5.326,0,0,1,6.686.157c2.236,1.956,2.4,4.309.516,7.607m-17.44,4.178a39.915,39.915,0,0,0-10.7,1.459,15.423,15.423,0,0,0-6.906,3.608c-1.736,1.734-1.723,3.52-.017,5.27a12.925,12.925,0,0,0,5.517,3.16,41.435,41.435,0,0,0,23.939.362,14.671,14.671,0,0,0,6.553-3.426c1.85-1.8,1.844-3.624.014-5.444a14.142,14.142,0,0,0-5.772-3.2,40.218,40.218,0,0,0-12.632-1.787m7.9-1.364c-.146-.415-.225-.725-.358-1.007a7.766,7.766,0,0,0-4.113-3.964c-1.375-.574-1.469-1.13-.373-2.16a4.053,4.053,0,0,0,.068-5.876,3.9,3.9,0,0,0-5.368-.008,4.058,4.058,0,0,0,.055,5.879c1.117,1.057,1.014,1.581-.435,2.195a7.731,7.731,0,0,0-4.073,4,7.994,7.994,0,0,0-.3.935,49.961,49.961,0,0,1,14.9,0m-16.74-1.165a17.106,17.106,0,0,1-1.992-.442,1.256,1.256,0,0,1-.756-.712c-.066-.283.2-.666.37-.972.085-.149.3-.217.462-.323a3.307,3.307,0,0,0,1.4-3.751,3.374,3.374,0,0,0-3.167-2.366,3.333,3.333,0,0,0-3.319,2.369,3.268,3.268,0,0,0,1.329,3.7,5.037,5.037,0,0,1,.65.48.881.881,0,0,1-.214,1.481,4.371,4.371,0,0,1-.845.279,5.589,5.589,0,0,0-3.9,6.134c.052,0,.123.022.152,0a19.049,19.049,0,0,1,8.342-3.974,1.624,1.624,0,0,0,1.486-1.9m28.521,5.968a5.268,5.268,0,0,0-1.871-5.066,22.289,22.289,0,0,0-2.559-1.325,1.564,1.564,0,0,1-.764-.81c-.06-.269.25-.646.446-.94.1-.146.305-.217.464-.326a3.264,3.264,0,0,0,1.318-3.7,3.394,3.394,0,0,0-6.517.168,3.267,3.267,0,0,0,1.576,3.673c.437.3.969.635.693,1.2a2.048,2.048,0,0,1-1.087.763,12.021,12.021,0,0,1-1.687.411c.173,1.526.173,1.526,1.434,1.844a20.591,20.591,0,0,1,8.554,4.107" transform="translate(-435.953 -144.929)" fill="#1a1818"/>
</svg>
