<svg xmlns="http://www.w3.org/2000/svg" width="52.162" height="52.097" viewBox="0 0 52.162 52.097">
  <path id="Path_66" data-name="Path 66" d="M317.483,184.97c1.947.381,3.89.78,5.843,1.128a3.207,3.207,0,0,0,1.472-.014,18.765,18.765,0,1,1,7.818,36.484c-1.782.154-2.817,1.321-3.9,2.467a.95.95,0,0,0-.013.87c.464.793,1,1.543,1.532,2.3.234.332.525.624.766.95,1.567,2.135,1.035,3.659-1.481,4.52a29.378,29.378,0,0,0-3.494,1.533,6.414,6.414,0,0,1-4.452-.351,14.894,14.894,0,0,0-2.947-1.177c-2.644-.866-3.135-2.413-1.451-4.654.731-.973,1.439-1.964,2.155-2.948a.933.933,0,0,0-.182-1.355,7.406,7.406,0,0,0-4.61-2.265,18.609,18.609,0,0,1-15.362-14.131,18.836,18.836,0,0,1,16.047-23.032c.733-.089,1.477-.073,2.216-.1C317.453,185.114,317.467,185.043,317.483,184.97Zm12.086,6.454a7.628,7.628,0,0,0-.6-.627,17.476,17.476,0,0,0-25.954,22.96,1.126,1.126,0,0,0,1.522.533q13.742-4.408,27.506-8.759c3.1-.986,3.1-.989,2.649-4.183-.008-.055-.073-.1-.112-.155-3.865,2.29-7.213,1.663-8.971-1.674C323.973,196.417,325.477,193.3,329.569,191.424Zm-24.884,24.183a1.591,1.591,0,0,0,.171.385A16.582,16.582,0,0,0,315,221.2c3.251.392,6.4,2.872,7.008,6.093a36.051,36.051,0,0,1,.244,5.389c.047,1.332.5,1.709,1.725,1.337q2.806-.85,5.59-1.771c1.052-.35,1.244-.9.644-1.866a14.9,14.9,0,0,0-1.285-1.665,8.918,8.918,0,0,1-1.746-9.021,5.13,5.13,0,0,1,1.63-2.548,16.527,16.527,0,0,0,5.722-9.737c.081-.4.116-.812.187-1.328Zm30.355-4.051c2.7.862,5.621,1.768,8.52,2.743a1.115,1.115,0,0,0,1.513-.56,17.461,17.461,0,0,0-11-26.9,16.986,16.986,0,0,0-8.082.309c.978.631,1.809,1.111,2.572,1.679.8.6,1.511,1.3,2.3,1.913a6.429,6.429,0,0,0,1.633,1.021c2.434.877,4.241,3.6,3.653,6.026a10.328,10.328,0,0,0-.062,4.024,7.638,7.638,0,0,1,.139,2.1C335.887,206.41,335.461,208.9,335.04,211.555Zm-7.033,12.125c1.458-1.176,2.568-2.349,4.368-2.439a15.883,15.883,0,0,0,9.09-3.638c.7-.548,1.315-1.2,2.1-1.934-3.115-1-5.979-1.929-8.862-2.8a1.182,1.182,0,0,0-.918.429,40.95,40.95,0,0,1-3.671,4.388C328.279,219.311,328.067,221.289,328.007,223.681Zm2.667-22.39a4.25,4.25,0,1,0-.09-8.5,4.25,4.25,0,1,0,.09,8.5Zm-9.791,31.691c.084-2.079.506-4.07-.391-6.069-.942,1.244-1.852,2.347-2.646,3.529-.592.881-.366,1.427.617,1.784C319.216,232.5,319.995,232.708,320.883,232.981Z" transform="translate(-297.963 -184.209)" fill="none" stroke="#1a1818" stroke-miterlimit="10" stroke-width="1.3"/>
</svg>
