<svg xmlns="http://www.w3.org/2000/svg" width="42.712" height="47.016" viewBox="0 0 42.712 47.016">
  <g id="Group_66" data-name="Group 66" transform="translate(-1185.736 -275.712)">
    <path id="Path_38" data-name="Path 38" d="M421.495,175.633c.752,0,1.5-.008,2.254,0,.786.009,1.294.418,1.225,1.021-.082.73-.571.891-1.245.889q-10.511-.021-21.021-.009c-.869,0-1.264-.3-1.252-.946.013-.62.451-.95,1.287-.956.731-.006,1.464,0,2.41,0-.405-.264-.638-.415-.867-.563a16.906,16.906,0,0,1-8.234-14.741c-.043-2.909-.008-5.819,0-8.726,0-1.2.291-1.492,1.5-1.492q15.667,0,31.336,0c1.185,0,1.5.321,1.5,1.505,0,1.263,0,2.527,0,3.888,1.244,0,2.424-.011,3.6,0a4.521,4.521,0,0,1,3.442,1.342,4.175,4.175,0,0,1,1,4.608,4.292,4.292,0,0,1-4.151,2.9c-1.426.04-2.852.008-4.319.008a18.321,18.321,0,0,1-8.463,11.272m-23.417-18.092c-.6,7,1.556,12.69,7.805,16.142,5.711,3.154,11.44,2.654,16.637-1.3,4.876-3.708,6.362-8.9,5.8-14.846Zm30.293-5.37H398.062v3.274h30.309Zm2,10.15c1.426,0,2.872.063,4.312-.019a2.3,2.3,0,0,0,2.054-2.318,2.323,2.323,0,0,0-1.962-2.41c-1.432-.1-2.879-.024-4.4-.024Z" transform="translate(789.706 145.182)" fill="#1a1818"/>
    <path id="Path_39" data-name="Path 39" d="M410.392,150.146a5.445,5.445,0,0,1-1.247,3.689c-.538.6-1.1.722-1.581.315-.443-.372-.459-.965.036-1.535a3.543,3.543,0,0,0,.682-3.282c-.294-1.307-.779-2.572-1.076-3.879a46.172,46.172,0,0,1-.877-4.792,3.225,3.225,0,0,1,1.032-2.494.982.982,0,0,1,1.467-.176.9.9,0,0,1,.062,1.4,2.674,2.674,0,0,0-.559,2.594c.552,2.005,1.155,4,1.687,6.006.207.785.28,1.606.373,2.155" transform="translate(795.697 137.975)" fill="#1a1818"/>
    <path id="Path_40" data-name="Path 40" d="M404.51,141.153c.921.022,1.432.817.978,1.4a2.46,2.46,0,0,0-.2,2.462c.174.608.334,1.222.453,1.842A3.029,3.029,0,0,1,405,149.5a.945.945,0,0,1-1.393.236.881.881,0,0,1-.172-1.385,2.113,2.113,0,0,0,.185-2.026,11.825,11.825,0,0,1-.5-2.779,5.309,5.309,0,0,1,.817-2.059c.106-.206.465-.279.571-.339" transform="translate(793.837 139.965)" fill="#1a1818"/>
    <path id="Path_41" data-name="Path 41" d="M413.146,141.951c-.1.3-.114.514-.226.635-.649.692-.435,1.445-.245,2.231a10.173,10.173,0,0,1,.486,2.7,4.581,4.581,0,0,1-.836,2.049.945.945,0,0,1-1.5-1.149c.62-.725.389-1.461.207-2.239a10.258,10.258,0,0,1-.48-2.7,4.506,4.506,0,0,1,.875-2.03,1.193,1.193,0,0,1,1.052-.217c.275.078.461.487.665.722" transform="translate(798.165 139.99)" fill="#1a1818"/>
    <path id="Path_42" data-name="Path 42" d="M410.9,170.165a13.227,13.227,0,0,1-12.382-12.632c-.006-.133-.013-.264-.008-.4.025-.636.31-1.1.981-1.113s.94.446,1.024,1.075a21.039,21.039,0,0,0,.527,3.262,11.15,11.15,0,0,0,10.3,7.875,1.356,1.356,0,0,1,.761.136c.274.233.635.611.6.889a1.394,1.394,0,0,1-.723.874,2.622,2.622,0,0,1-1.084.032" transform="translate(791.148 148.628)" fill="#1a1818"/>
  </g>
</svg>
