<svg xmlns="http://www.w3.org/2000/svg" width="61.596" height="46.17" viewBox="0 0 61.596 46.17">
  <path id="Path_44" data-name="Path 44" d="M377.6,176.128c-4.653,4.953-15.5,6.156-22.63-.291-2.44,2.747-4.909,5.468-7.307,8.251-1.026,1.193-4.005,1.89-5.308,1.057a1.7,1.7,0,0,1-.646-2.252c1.13-3.2,2.192-6.42,3.33-9.617.244-.684.269-1.076-.443-1.518a9.5,9.5,0,0,1-4.733-9.348,8.935,8.935,0,0,1,6.071-8c.084-.032.15-.111.025-.016a27.781,27.781,0,0,1,.046-4.819c.725-3.936,3.323-6.474,6.784-8.2a21.037,21.037,0,0,1,11.613-1.91,35.267,35.267,0,0,1,4.949.8,10.626,10.626,0,0,1,5.707,3.276,30.465,30.465,0,0,1,5.558-1.526c6.283-.5,11.489,3.743,12.73,10.049a2.045,2.045,0,0,0,.9,1.377c7.019,2.82,9.354,10.616,4.892,16.762a6.969,6.969,0,0,1-7.245,3.083,2.049,2.049,0,0,0-2.478,1.056c-2.333,3.284-5.844,4.236-9.671,2.773-.711-.271-1.388-.633-2.144-.983m-19.429-2.383c3.838,3.979,12.774,4.11,16.642.394a1.659,1.659,0,0,0,.348-1.92,9.034,9.034,0,0,1,5.942-10.6,1.7,1.7,0,0,1,2.273.956,1.582,1.582,0,0,1-.888,2.141,19.016,19.016,0,0,0-1.967,1.179,5.474,5.474,0,0,0-1.915,6.139c.745,1.742,2.839,2.584,5.422,2.179a5.144,5.144,0,0,0,3.7-4.809,4.968,4.968,0,0,1,1.624-4.4c1.117-1.046,2.129-1.226,2.895-.424,1.035,1.082.389,1.92-.362,2.866a2.485,2.485,0,0,0-.508,1.98c.125.362,1.217.6,1.845.544,2.4-.217,3.952-2.038,4.586-5.172.712-3.518-1.437-7.281-4.593-7.9a6.182,6.182,0,0,1-4.784,3.638c-3.387.688-7.245-1.174-8.244-4.034-.361-1.037-.345-2.049.888-2.513,1.1-.415,1.784.1,2.269,1.114a3.987,3.987,0,0,0,5.64,1.6,2.887,2.887,0,0,0,1.149-1.831,8.812,8.812,0,0,0-10.16-9.383,8.074,8.074,0,0,0-3.116,1.339c-.394.282-.242,1.3-.378,1.973-.671,3.333-4.871,5.922-8.093,4.9a1.954,1.954,0,0,1-1.146-1.416,2.3,2.3,0,0,1,1.04-1.639c.567-.337,1.4-.2,2.094-.362,1.119-.258,2.364-.473,2.7-1.81a3.062,3.062,0,0,0-1.38-3.376,7.033,7.033,0,0,0-2.807-1.364,53.588,53.588,0,0,0-9.108-.783,12.357,12.357,0,0,0-8.308,3.472,6.244,6.244,0,0,0-1.917,6.651,1.85,1.85,0,0,0,1.075.969c1.032.359,2.151.476,3.175.853a9.217,9.217,0,0,1,5.427,4.846,1.648,1.648,0,0,1-.755,2.436,1.674,1.674,0,0,1-2.288-.861c-.127-.2-.225-.423-.339-.633-1.666-3.113-7.617-4.121-9.563-2.781a6.151,6.151,0,0,0-3,5.96,6.325,6.325,0,0,0,4.077,5.618c2.021.8,2.216,1.2,1.521,3.227q-1.215,3.539-2.434,7.077a5.923,5.923,0,0,0,1.413-1.306c3.527-3.955,7.316-7.6,12.137-9.98a15.663,15.663,0,0,1,7.022-1.812,1.617,1.617,0,0,1,1.828,1.446c.157,1.108-.481,1.692-1.505,1.909-.326.068-.666.07-1,.108-3.088.364-5.631,1.912-8.163,3.6" transform="translate(-339.826 -139.34)" fill="#1a1818"/>
</svg>
