<svg xmlns="http://www.w3.org/2000/svg" width="54.972" height="36.503" viewBox="0 0 54.972 36.503">
  <path id="Path_45" data-name="Path 45" d="M530.391,160.816c-2.732-3.728-5.447-7.471-8.256-11.14a2.141,2.141,0,0,0-1.842-.687c-3.972,1.334-8.068,1.345-12.179,1.451a25.6,25.6,0,0,0-4.113.8c-.394.076-.88.25-1.187.1a12,12,0,0,0-5.509-.948,31.211,31.211,0,0,1-10.4-1.26,2.177,2.177,0,0,0-2.847.907c-2.475,3.44-5,6.84-7.509,10.257-1.108,1.511-1.038,1.964.426,3.2,2.312,1.947,4.616,3.9,6.973,5.893-1.825,1.584-2.63,3.44-1.646,5.662a4.3,4.3,0,0,0,4.672,2.749c1.261.883,2.212,1.548,3.16,2.219a4.348,4.348,0,0,1,1.263.964,4.118,4.118,0,0,0,3.527,2.2,2.193,2.193,0,0,1,1.415.688,3.9,3.9,0,0,0,4.592,1.3,2.116,2.116,0,0,1,1.193-.044,4.776,4.776,0,0,0,5.9-2.065,1.679,1.679,0,0,1,1.173-.649,4.526,4.526,0,0,0,3.578-1.7,1.937,1.937,0,0,1,1.219-.59,3.812,3.812,0,0,0,3.118-1.518,1.9,1.9,0,0,1,2.016-.845,4.077,4.077,0,0,0,4.662-4.814c-.174-1.128-1.04-2.149-1.646-3.326.04-.035.248-.241.475-.426q3.573-2.936,7.152-5.866c.844-.688,1.388-1.451.612-2.51m-43.886,13.919a1.344,1.344,0,0,1-1.491-1.4,1.4,1.4,0,0,1,1.314-1.565c1.149.04,1.679.616,1.666,1.538a1.368,1.368,0,0,1-1.489,1.424m4.768,3.034a1.274,1.274,0,1,1,1.274-1.274,1.274,1.274,0,0,1-1.274,1.274m3.6,2.6a1.178,1.178,0,1,1,1.179-1.179,1.179,1.179,0,0,1-1.179,1.179m4.759,2.288a1,1,0,1,1,1-1,1,1,0,0,1-1,1m20.86-8.335c-.723.8-1.567.43-2.287-.138q-4.384-3.463-8.753-6.951a6.433,6.433,0,0,0-.5-.407c-.8-.522-1.622-.663-2.279.184a1.474,1.474,0,0,0,.405,2.241c2.2,1.776,4.42,3.523,6.634,5.281.168.133.35.25.506.394.472.434,1.318.761.638,1.613-.658.821-1.337.475-1.992-.063q-2.58-2.122-5.173-4.23c-.3-.244-.593-.492-.9-.725-.972-.736-1.92-.72-2.47.089-.654.961-.19,1.684.581,2.314q2.141,1.747,4.276,3.5c.426.348.844.7,1.3,1.082-.6,1.029-1.285.975-2.051.392-1.5-1.141-2.98-2.306-4.5-3.423a2.345,2.345,0,0,0-1.347-.614,1.432,1.432,0,0,0-1.068,2.5c.891.912,2,1.6,2.959,2.456.416.372,1.01,1,.926,1.382a1.5,1.5,0,0,1-1.985,1.109c-.617-3.531-1.714-4.515-4.911-4.385a4.3,4.3,0,0,0-3.285-2.344c-.2-.016-.435-.358-.552-.6a4.066,4.066,0,0,0-3.086-2.443c-.275-.047-.5-.437-.73-.69a26.5,26.5,0,0,0-2.328-2.616c-2.951-2.542-5.973-5-9.125-7.623,2.263-3.086,4.428-6.055,6.629-9a.994.994,0,0,1,.856-.29c3.629,1.057,7.364.972,11.081,1.109.883.032,1.763.149,2.974.256L497,158.106c-.171.191-.369.364-.521.57-.7.945-2.07,1.6-1.423,3.141a4.316,4.316,0,0,0,3.982,2.964,9.091,9.091,0,0,0,3.752-.945,27.963,27.963,0,0,0,3.588-2.331q6.791,5.37,13.581,10.757c.65.518,1.277,1.238.528,2.064m-1.1-6.463c-3.884-3.064-7.678-6.055-11.469-9.051-1.331-1.051-1.763-1.027-3.144-.022a35.626,35.626,0,0,1-3.945,2.622,7.072,7.072,0,0,1-2.341.351c-.062-.155-.123-.309-.187-.462.4-.467.788-.95,1.208-1.4,1.665-1.779,3.27-3.624,5.05-5.276a4.772,4.772,0,0,1,2.632-1.073c3.442-.345,6.958-.223,10.328-.883,2.3-.451,3.426.116,4.585,1.969,1.484,2.379,3.289,4.559,5.023,6.916-2.633,2.148-5.172,4.216-7.739,6.308" transform="translate(-475.792 -148.937)" fill="#1a1818"/>
</svg>
