<svg xmlns="http://www.w3.org/2000/svg" width="44.52" height="60.218" viewBox="0 0 44.52 60.218">
  <g id="Group_67" data-name="Group 67" transform="translate(-1374.8 -272.597)">
    <path id="Path_47" data-name="Path 47" d="M559.431,143.4c-2.287-2.356-4.623-4.67-6.954-6.984-1.054-1.046-2.068-.8-2.5.6-1.277,4.13-2.562,8.258-3.793,12.4a.965.965,0,0,1-1.128.821c-2.947-.03-5.893-.013-8.842-.017a7.336,7.336,0,0,1-.753-.071A10.077,10.077,0,0,0,515.5,151.96c-.051,4.5,3.056,9.559,9.7,10.209.15,1.8.288,3.554.443,5.306q1.185,13.45,2.379,26.9c.122,1.38.361,1.608,1.754,1.609h20.222c1.632,0,1.875-.256,2.015-1.929q.829-9.913,1.684-19.828c.644-7.384,1.312-14.765,1.962-22.149.125-1.41-.286-1.852-1.695-1.858-1.753-.009-3.507,0-5.393,0l3.382-11.056a10.424,10.424,0,0,0,.768,1.059c1.666,1.687,3.334,3.372,5.029,5.031.893.875,2.125.636,2.265-.461a1.994,1.994,0,0,0-.579-1.4M523.7,144.655c.128,1.475.234,2.7.366,4.208l-3.621-2.51,3.255-1.7m-4.83,3.679,3.622,2.516c-1.556.366-2.909.685-4.613,1.087.356-1.3.654-2.374.991-3.6m-.587,6.1,4.45-1.021c-.945,1.408-1.739,2.591-2.673,3.982-.636-1.06-1.169-1.95-1.777-2.961m3.828,4.447c.839-1.249,1.57-2.339,2.467-3.679.149,1.633.271,2.974.405,4.472l-2.872-.793m10.833-8.744h-3.724c.685-.669,1.551-1.516,2.489-2.436.29.573.72,1.421,1.234,2.436m-6.723-5.691,3.347,1.125-2.989,2.782c-.112-1.214-.225-2.451-.358-3.907m.739,8.316h18.188c-.668,2.182-1.315,4.33-2,6.466a.759.759,0,0,1-.584.367c-4.972.019-9.945.016-15.023.016-.195-2.3-.385-4.542-.579-6.849m22.551,40.725H530.455c-.9-10.382-1.807-20.774-2.72-31.265h14.493c-.225.771-.44,1.532-.673,2.288q-3.791,12.394-7.59,24.789c-.06.193-.133.383-.179.579-.179.785-.043,1.461.826,1.693a1.209,1.209,0,0,0,1.592-.983c1.064-3.486,2.143-6.97,3.211-10.454,1.752-5.711,3.516-11.421,5.232-17.142a1.016,1.016,0,0,1,1.2-.874c2.094.044,4.189.016,6.386.016-.912,10.5-1.815,20.9-2.722,31.352m3.547-40.781c-.207,2.341-.405,4.577-.608,6.856h-6.74c.674-2.19,1.329-4.341,2.015-6.482a.654.654,0,0,1,.486-.358c1.581-.027,3.162-.016,4.847-.016" transform="translate(859.302 136.829)" fill="#1a1818"/>
    <path id="Path_48" data-name="Path 48" d="M529.123,160.76a3.872,3.872,0,0,0,3.85-3.664,3.788,3.788,0,0,0-7.572-.229,3.869,3.869,0,0,0,3.722,3.893m.114-5.014a1.217,1.217,0,0,1,1.19,1.288,1.162,1.162,0,0,1-1.241,1.149A1.124,1.124,0,0,1,527.963,157a1.2,1.2,0,0,1,1.274-1.253" transform="translate(865.07 147.01)" fill="#1a1818"/>
    <path id="Path_49" data-name="Path 49" d="M535.137,165.53a3.761,3.761,0,1,0,3.773,3.823,3.814,3.814,0,0,0-3.773-3.823m.021,4.991a1.221,1.221,0,0,1-1.28-1.263,1.19,1.19,0,0,1,1.258-1.184,1.224,1.224,0,0,1,1.225,1.29,1.184,1.184,0,0,1-1.2,1.157" transform="translate(868.551 154.166)" fill="#1a1818"/>
    <path id="Path_50" data-name="Path 50" d="M530.891,162.745a3.13,3.13,0,0,0-3.118-3.171,3.138,3.138,0,1,0-.063,6.276,3.129,3.129,0,0,0,3.181-3.1M527.746,164a1.291,1.291,0,1,1,1.29-1.291,1.291,1.291,0,0,1-1.29,1.291" transform="translate(864.604 150.696)" fill="#1a1818"/>
    <path id="Path_51" data-name="Path 51" d="M533.332,161.513a3.238,3.238,0,0,0,3.183,3.148,3.148,3.148,0,0,0,3.11-3.184,3.076,3.076,0,0,0-3.194-3.075,3.2,3.2,0,0,0-3.1,3.111m4.438.111a1.291,1.291,0,1,1-1.29-1.291,1.29,1.29,0,0,1,1.29,1.291" transform="translate(869.691 150.013)" fill="#1a1818"/>
  </g>
</svg>
