<svg xmlns="http://www.w3.org/2000/svg" width="14.671" height="27.501" viewBox="0 0 14.671 27.501">
  <path id="Path_32" data-name="Path 32" d="M316.522,158.724l-1.985,1.988c-3.327,3.333-6.767,6.781-10.177,10.143a1.949,1.949,0,0,1-1.1.548.623.623,0,0,1-.562-.32.8.8,0,0,1-.011-.826,4.112,4.112,0,0,1,.636-.739l.028-.028q3.328-3.338,6.664-6.672l3.838-3.841c.171-.169.329-.342.5-.525.078-.084.157-.169.242-.26l.478-.513-.481-.508-.255-.272c-.169-.184-.328-.351-.491-.514l-3.983-3.985q-3.262-3.264-6.52-6.528l-.049-.047a4.4,4.4,0,0,1-.587-.666.692.692,0,0,1,.1-.967.746.746,0,0,1,.556-.288.909.909,0,0,1,.411.116,2.657,2.657,0,0,1,.6.494c3.732,3.722,7.7,7.7,12.149,12.146.931.932.929,1.125-.011,2.067" transform="translate(-302.558 -143.902)" fill="#000001"/>
</svg>
