<svg xmlns="http://www.w3.org/2000/svg" width="433.141" height="83.408" viewBox="0 0 433.141 83.408">
  <g id="Group_62" data-name="Group 62" transform="translate(106.177 174.553)">
    <path id="Path_93" data-name="Path 93" d="M135.787,365.806a.815.815,0,0,1-.426.78.867.867,0,0,1-.921-.071L98.431,339.933a19.412,19.412,0,0,0-1.063,2.553L134.936,370.2a.812.812,0,0,1,.285.85,16.713,16.713,0,0,1-1.7,4.184,1.1,1.1,0,0,1-.567.426,1.049,1.049,0,0,1-.638-.142L97.085,350.283a10.114,10.114,0,0,0,3.755,5.6l29.7,21.833a.978.978,0,0,1,.353.568.77.77,0,0,1-.283.638,16.06,16.06,0,0,1-11.483,4.536h-7.656c-9.215,0-14.389-6.593-16.019-12.263a.808.808,0,1,1,1.559-.424c1.488,5.1,6.167,11.057,14.46,11.057h7.656a14.444,14.444,0,0,0,9.639-3.4l-28.85-21.268A12.177,12.177,0,0,1,95.1,348.51a.891.891,0,0,1,.424-.78.752.752,0,0,1,.851.071l36.15,25.875a15.107,15.107,0,0,0,.992-2.483L95.95,343.478a.774.774,0,0,1-.283-.921A14.09,14.09,0,0,1,97.51,338.3a.9.9,0,0,1,.5-.354.959.959,0,0,1,.638.141L133.874,364.1a10.793,10.793,0,0,0-4.183-6.449l-29.276-21.621a.873.873,0,0,1-.283-.568,1,1,0,0,1,.212-.638,15.469,15.469,0,0,1,10.562-4.04H119.7c8.221,0,13.537,6.026,15.238,12.05a.808.808,0,1,1-1.559.427c-1.416-5.034-5.813-10.847-13.68-10.847h-8.791a13.668,13.668,0,0,0-8.718,2.978l28.5,20.981a12.648,12.648,0,0,1,5.1,9.427" transform="translate(-106.6 -499.563)" fill="#1a1818"/>
    <path id="Path_94" data-name="Path 94" d="M176.659,383.244a.758.758,0,0,1-.992.07l-35.8-26.865L126.9,383.03a.813.813,0,0,1-.78.426.762.762,0,0,1-.353-.071.826.826,0,0,1-.356-1.063l13.469-27.5a.743.743,0,0,1,.5-.424.834.834,0,0,1,.711.139l33.811,25.449-2.48-5.175L141,351.982a.784.784,0,0,1-.283-.992l1.913-3.9a.734.734,0,0,1,.567-.426,1.046,1.046,0,0,1,.638.142l21.9,16.515-2.551-5.173-18.43-13.895a.764.764,0,0,1-.214-.992l5.884-12.051a.8.8,0,0,1,1.418,0l9.074,18.642a.766.766,0,0,1-.356,1.063.825.825,0,0,1-1.062-.353l-8.365-17.155-4.892,9.994,18.076,13.54c.142.071.214.212.283.285l4.04,8.364a.763.763,0,0,1-.212.992.851.851,0,0,1-.992,0l-23.817-17.864-1.133,2.339,30.054,22.613a.951.951,0,0,1,.214.283l4.11,8.364a.774.774,0,0,1-.212.923" transform="translate(-88.993 -499.563)" fill="#1a1818"/>
    <path id="Path_95" data-name="Path 95" d="M164.049,343.763v3.262l33.6,25.3,33.882-25.519a.739.739,0,0,1,.85-.071.655.655,0,0,1,.426.709V382.68a.786.786,0,0,1-.78.779.85.85,0,0,1-.85-.779V349.01l-33.1,24.95v.071H198c-.071.071-.071.071-.142.071H197.3v-.071h-.142v-.071l-34.378-25.872a.849.849,0,0,1-.356-.639v-5.316a.78.78,0,0,1,.426-.709.893.893,0,0,1,.851.071l33.954,25.519,33.528-25.237v-3.258l-33.1,24.881v.071H198c-.071.07-.071.07-.142.07h-.141v.07h-.142a.069.069,0,0,1-.071-.07H197.3v-.07h-.142V363.4l-34.378-25.873a.849.849,0,0,1-.356-.638v-5.317a.782.782,0,0,1,.426-.709.893.893,0,0,1,.851.071l33.954,25.59,33.882-25.59a.884.884,0,0,1,1.135.212.711.711,0,0,1-.142,1.063l-34.449,25.944-.071.07h-.142v.071h-.5l-.07-.071h-.071v-.07h-.071l-33.1-24.951v3.26l33.6,25.3,33.882-25.519a.744.744,0,0,1,.85-.071.779.779,0,0,1,.426.711v5.245a.688.688,0,0,1-.283.638l-34.449,25.944H198v.071h-.142c0,.07-.071.07-.141.07h-.285a.069.069,0,0,1-.071-.07h-.141v-.071h-.071Zm64.435,11.7a.8.8,0,0,1-.141,1.135l-30.268,22.683H198c0,.071,0,.071-.071.071h-.071c0,.071-.071.071-.141.071h-.285l-.071-.071h-.141v-.071h-.071l-33.1-24.952V382.68a.8.8,0,0,1-.85.779.787.787,0,0,1-.78-.779V352.7a.78.78,0,0,1,.426-.709.747.747,0,0,1,.851.071l33.954,25.519,29.7-22.33a.884.884,0,0,1,1.135.214" transform="translate(-67.383 -499.565)" fill="#1a1818"/>
    <path id="Path_96" data-name="Path 96" d="M265.029,383.244a.758.758,0,0,1-.992.07l-35.8-26.865L215.267,383.03a.813.813,0,0,1-.78.426.771.771,0,0,1-.355-.071.827.827,0,0,1-.354-1.063l13.469-27.5a.743.743,0,0,1,.5-.424.834.834,0,0,1,.711.139l33.811,25.449-2.48-5.175-30.41-22.825a.783.783,0,0,1-.283-.992l1.913-3.9a.734.734,0,0,1,.567-.426,1.046,1.046,0,0,1,.638.142l21.9,16.515-2.553-5.173-18.429-13.895a.764.764,0,0,1-.214-.992l5.884-12.051a.8.8,0,0,1,1.418,0l9.073,18.642a.764.764,0,0,1-.354,1.063.825.825,0,0,1-1.062-.353l-8.365-17.155-4.892,9.994,18.076,13.54c.142.071.214.212.283.285l4.04,8.364a.763.763,0,0,1-.212.992.851.851,0,0,1-.992,0L232,348.722l-1.133,2.339,30.054,22.613a.949.949,0,0,1,.212.283l4.112,8.364a.774.774,0,0,1-.212.923" transform="translate(-37.513 -499.563)" fill="#1a1818"/>
    <path id="Path_97" data-name="Path 97" d="M294.645,332.142l-23.32,50.824a.74.74,0,0,1-.709.5.529.529,0,0,1-.354-.071.835.835,0,0,1-.426-1.063l22.825-49.69h-2.977L266.5,382.965a.853.853,0,0,1-.709.5h-4.749a.849.849,0,0,1-.638-.354,1,1,0,0,1-.071-.78l22.9-49.69h-2.977l-23.18,50.328a.853.853,0,0,1-.709.5h-4.749a.749.749,0,0,1-.639-.354.782.782,0,0,1-.071-.78l11.625-25.093-11.625-25.307a.777.777,0,0,1,.427-1.063.8.8,0,0,1,1.062.426l11.7,25.59a.642.642,0,0,1,0,.709l-11.2,24.241h2.978L278.98,331.5a.87.87,0,0,1,.78-.5h4.678a.777.777,0,0,1,.709.426.847.847,0,0,1,.071.709l-22.9,49.689H265.3L288.478,331.5a.77.77,0,0,1,.709-.5h4.749a.757.757,0,0,1,.639.426.841.841,0,0,1,.07.709" transform="translate(-15.882 -499.567)" fill="#1a1818"/>
    <path id="Path_98" data-name="Path 98" d="M327.69,383.244a.758.758,0,0,1-.992.07l-35.8-26.865L277.928,383.03a.813.813,0,0,1-.78.426.762.762,0,0,1-.353-.071.826.826,0,0,1-.354-1.063l13.468-27.5a.746.746,0,0,1,.5-.424.834.834,0,0,1,.711.139l33.811,25.449-2.48-5.175-30.41-22.825a.783.783,0,0,1-.283-.992l1.913-3.9a.737.737,0,0,1,.567-.426,1.053,1.053,0,0,1,.639.142l21.9,16.515-2.553-5.173-18.429-13.895a.764.764,0,0,1-.214-.992l5.885-12.051a.8.8,0,0,1,1.416,0l9.074,18.642a.767.767,0,0,1-.356,1.063.825.825,0,0,1-1.062-.353l-8.365-17.155-4.892,9.994,18.076,13.54c.142.071.214.212.285.285l4.039,8.364a.764.764,0,0,1-.21.992.854.854,0,0,1-.994,0l-23.817-17.864-1.135,2.339,30.056,22.613a.951.951,0,0,1,.212.283l4.113,8.364a.774.774,0,0,1-.214.923" transform="translate(-1.01 -499.563)" fill="#1a1818"/>
    <path id="Path_99" data-name="Path 99" d="M76.979,327.137a41.7,41.7,0,1,0,41.7,41.7,41.706,41.706,0,0,0-41.7-41.7m30.083,56.313a1.317,1.317,0,0,1-1.391-.108L51.285,343.2a29.294,29.294,0,0,0-1.606,3.855l56.741,41.86a1.227,1.227,0,0,1,.429,1.285,25.252,25.252,0,0,1-2.57,6.316,1.665,1.665,0,0,1-.856.643,1.594,1.594,0,0,1-.964-.214L49.251,358.826a15.278,15.278,0,0,0,5.673,8.459l44.857,32.972a1.476,1.476,0,0,1,.535.858,1.166,1.166,0,0,1-.427.964l-.016,0a1.572,1.572,0,0,1-.624.41,1.812,1.812,0,0,1-.665-.076l-.09-.065-.679-.5-1.4-1.029L65.589,378.1l-.013-.011-12.043-8.877a18.393,18.393,0,0,1-7.281-13.061,1.342,1.342,0,0,1,.643-1.177,1.134,1.134,0,0,1,1.285.108l54.6,39.076a22.69,22.69,0,0,0,1.5-3.747l-56.741-41.86a1.172,1.172,0,0,1-.427-1.393,21.284,21.284,0,0,1,2.782-6.424,1.373,1.373,0,0,1,.75-.535,1.434,1.434,0,0,1,.964.215l53.208,39.29a16.3,16.3,0,0,0-6.318-9.742L54.282,337.308a1.33,1.33,0,0,1-.429-.856,1.849,1.849,0,0,1,.1-.563h0a.679.679,0,0,1,.074-.169,1.44,1.44,0,0,1,.717-.527,1.606,1.606,0,0,1,.8.133.408.408,0,0,1,.087.057l.624.456h-.013l25.7,18.894L100,368.035a19.1,19.1,0,0,1,7.709,14.238,1.23,1.23,0,0,1-.644,1.177" transform="translate(-141.451 -501.69)" fill="#1a1818"/>
    <path id="Path_100" data-name="Path 100" d="M100.581,374.058a1.737,1.737,0,0,1-.176.768,1.777,1.777,0,0,1-.483.612,2.221,2.221,0,0,1,.932.8,2.166,2.166,0,0,1,.163,2.078,2.177,2.177,0,0,1-.529.717,2.4,2.4,0,0,1-1.665.557H96.188v-7.327h2.4a2.009,2.009,0,0,1,1.435.5,1.7,1.7,0,0,1,.562,1.3m-3.766,1.192h1.739a1.438,1.438,0,0,0,1.087-.389,1.181,1.181,0,0,0,0-1.609,1.443,1.443,0,0,0-1.087-.388H96.815Zm1.978.6H96.815v3.146h1.978a1.812,1.812,0,0,0,1.309-.438,1.571,1.571,0,0,0,0-2.26,1.816,1.816,0,0,0-1.309-.448" transform="translate(-105.966 -475.401)" fill="#1a1818"/>
    <path id="Path_101" data-name="Path 101" d="M112.432,372.864h-3.352v2.386H111.7v.6h-2.616v3.146h3.455v.6h-4.083v-7.327h3.98Z" transform="translate(-98.821 -475.401)" fill="#1a1818"/>
    <path id="Path_102" data-name="Path 102" d="M120.781,372.265v6.729h3.455v.6h-4.083v-7.327Z" transform="translate(-92.005 -475.401)" fill="#1a1818"/>
    <rect id="Rectangle_29" data-name="Rectangle 29" width="0.627" height="7.327" transform="translate(46.46 -103.136)" fill="#1a1818"/>
    <path id="Path_103" data-name="Path 103" d="M145.553,372.864H142.2v2.386h2.616v.6H142.2v3.146h3.453v.6h-4.081v-7.327h3.98Z" transform="translate(-79.527 -475.401)" fill="#1a1818"/>
    <path id="Path_104" data-name="Path 104" d="M158.546,372.265h.649l-2.985,7.327h-.418l-2.983-7.327h.647l2.545,6.28Z" transform="translate(-72.981 -475.401)" fill="#1a1818"/>
    <path id="Path_105" data-name="Path 105" d="M169.748,372.864H166.4v2.386h2.616v.6H166.4v3.146h3.453v.6h-4.081v-7.327h3.98Z" transform="translate(-65.432 -475.401)" fill="#1a1818"/>
    <rect id="Rectangle_30" data-name="Rectangle 30" width="0.627" height="7.327" transform="translate(134.751 -103.136)" fill="#1a1818"/>
    <path id="Path_106" data-name="Path 106" d="M197.364,379.593v-7.327h.419l4.92,6.1v-6.1h.628v7.327h-.419l-4.92-6.1v6.1Z" transform="translate(-47.026 -475.401)" fill="#1a1818"/>
    <path id="Path_107" data-name="Path 107" d="M225.56,372.265l-2.508,3.884v3.444h-.628v-3.444l-2.515-3.884h.715l2.11,3.274,2.116-3.274Z" transform="translate(-33.893 -475.401)" fill="#1a1818"/>
    <path id="Path_108" data-name="Path 108" d="M232.319,377.882a4.1,4.1,0,0,1,0-3.831,3.524,3.524,0,0,1,1.309-1.356,3.736,3.736,0,0,1,3.713,0,3.513,3.513,0,0,1,1.309,1.356,4.09,4.09,0,0,1,0,3.831,3.512,3.512,0,0,1-1.309,1.356,3.737,3.737,0,0,1-3.713,0,3.524,3.524,0,0,1-1.309-1.356m.154-1.917a3.367,3.367,0,0,0,.226,1.227,3.177,3.177,0,0,0,.614,1.011,2.841,2.841,0,0,0,.956.684,2.946,2.946,0,0,0,1.214.253,2.933,2.933,0,0,0,2.633-1.584,3.5,3.5,0,0,0,0-3.176,2.94,2.94,0,0,0-1.075-1.152,2.97,2.97,0,0,0-4.191,1.152,3.379,3.379,0,0,0-.378,1.586" transform="translate(-26.94 -475.438)" fill="#1a1818"/>
    <path id="Path_109" data-name="Path 109" d="M249.907,379.337a3.1,3.1,0,0,1-2.891,0,2.785,2.785,0,0,1-1.054-.972,3.139,3.139,0,0,1-.429-1.7v-4.4h.628V376.7a2.544,2.544,0,0,0,.321,1.358,2.251,2.251,0,0,0,.834.768,2.465,2.465,0,0,0,2.288,0,2.222,2.222,0,0,0,.832-.768,2.53,2.53,0,0,0,.328-1.358v-4.431h.628v4.4a3.125,3.125,0,0,1-.429,1.7,2.818,2.818,0,0,1-1.057.972" transform="translate(-18.965 -475.401)" fill="#1a1818"/>
    <path id="Path_110" data-name="Path 110" d="M264.063,379.592h-.752l-2.825-3.744H259.25v3.744h-.628v-7.327h2.5a2.018,2.018,0,0,1,1.42.476,1.791,1.791,0,0,1,0,2.635,1.935,1.935,0,0,1-1.307.472Zm-4.812-4.343H261.1a1.418,1.418,0,0,0,1.011-.312,1.19,1.19,0,0,0,0-1.758,1.421,1.421,0,0,0-1.011-.317H259.25Z" transform="translate(-11.34 -475.401)" fill="#1a1818"/>
    <path id="Path_111" data-name="Path 111" d="M270.69,378.5l.459-.408a3.2,3.2,0,0,0,.839.768,2.146,2.146,0,0,0,1.128.28,1.591,1.591,0,0,0,1.044-.385,1.229,1.229,0,0,0,.464-.991,1.314,1.314,0,0,0-.127-.575,1.294,1.294,0,0,0-.317-.422,2.961,2.961,0,0,0-.476-.318,5.317,5.317,0,0,0-.557-.263c-.179-.073-.378-.158-.6-.258a4.923,4.923,0,0,1-.563-.294,2.6,2.6,0,0,1-.733-.644,1.4,1.4,0,0,1-.264-.864,1.792,1.792,0,0,1,.6-1.385,2.142,2.142,0,0,1,1.491-.54,2.775,2.775,0,0,1,1.871.73l-.4.459a2.7,2.7,0,0,0-.68-.446,1.945,1.945,0,0,0-.771-.146,1.588,1.588,0,0,0-1.056.358,1.172,1.172,0,0,0-.424.94.989.989,0,0,0,.12.483,1.087,1.087,0,0,0,.3.358,3.018,3.018,0,0,0,.454.282c.18.093.354.174.525.242s.364.152.576.247a5.043,5.043,0,0,1,.548.29,2.045,2.045,0,0,1,1.111,1.768,1.819,1.819,0,0,1-.616,1.416,2.2,2.2,0,0,1-1.521.551,2.908,2.908,0,0,1-2.426-1.231" transform="translate(-4.31 -475.438)" fill="#1a1818"/>
    <path id="Path_112" data-name="Path 112" d="M286.673,372.864h-3.352v2.386h2.616v.6h-2.616v3.146h3.453v.6h-4.081v-7.327h3.98Z" transform="translate(2.682 -475.401)" fill="#1a1818"/>
    <path id="Path_113" data-name="Path 113" d="M295.02,372.265v6.729h3.455v.6h-4.081v-7.327Z" transform="translate(9.498 -475.401)" fill="#1a1818"/>
    <path id="Path_114" data-name="Path 114" d="M309.944,372.864h-3.352v2.386h2.616v.6h-2.616v3.744h-.628v-7.327h3.98Z" transform="translate(16.238 -475.401)" fill="#1a1818"/>
  </g>
</svg>
