<svg xmlns="http://www.w3.org/2000/svg" width="40.687" height="52.667" viewBox="0 0 40.687 52.667">
  <path id="Path_69" data-name="Path 69" d="M135.787,365.806a.815.815,0,0,1-.426.78.867.867,0,0,1-.921-.071L98.431,339.933a19.412,19.412,0,0,0-1.063,2.553L134.936,370.2a.812.812,0,0,1,.285.85,16.713,16.713,0,0,1-1.7,4.184,1.1,1.1,0,0,1-.567.426,1.049,1.049,0,0,1-.638-.142L97.085,350.283a10.114,10.114,0,0,0,3.755,5.6l29.7,21.833a.978.978,0,0,1,.353.568.77.77,0,0,1-.283.638,16.06,16.06,0,0,1-11.483,4.536h-7.656c-9.215,0-14.389-6.593-16.019-12.263a.808.808,0,1,1,1.559-.424c1.488,5.1,6.167,11.057,14.46,11.057h7.656a14.444,14.444,0,0,0,9.639-3.4l-28.85-21.268A12.177,12.177,0,0,1,95.1,348.51a.891.891,0,0,1,.424-.78.752.752,0,0,1,.851.071l36.15,25.875a15.107,15.107,0,0,0,.992-2.483L95.95,343.478a.774.774,0,0,1-.283-.921A14.09,14.09,0,0,1,97.51,338.3a.9.9,0,0,1,.5-.354.959.959,0,0,1,.638.141L133.874,364.1a10.793,10.793,0,0,0-4.183-6.449l-29.276-21.621a.873.873,0,0,1-.283-.568,1,1,0,0,1,.212-.638,15.469,15.469,0,0,1,10.562-4.04H119.7c8.221,0,13.537,6.026,15.238,12.05a.808.808,0,1,1-1.559.427c-1.416-5.034-5.813-10.847-13.68-10.847h-8.791a13.668,13.668,0,0,0-8.718,2.978l28.5,20.981a12.648,12.648,0,0,1,5.1,9.427" transform="translate(-95.1 -330.789)" fill="#1a1818"/>
</svg>
