<svg xmlns="http://www.w3.org/2000/svg" width="53.581" height="53.647" viewBox="0 0 53.581 53.647">
  <g id="Group_65" data-name="Group 65" transform="translate(-1015.857 -272.435)">
    <path id="Path_31" data-name="Path 31" d="M304.384,144.511a2.745,2.745,0,0,0-.6-.494.911.911,0,0,0-.411-.114.746.746,0,0,0-.556.286.694.694,0,0,0-.106.967,4.425,4.425,0,0,0,.589.666l.049.049q3.257,3.264,6.52,6.526l3.982,3.985c.165.163.323.332.492.516.082.085.166.176.255.271l.481.51-.478.511c-.085.09-.165.177-.242.261-.168.182-.326.354-.5.525l-3.838,3.841q-3.335,3.335-6.664,6.672l-.028.027a4.1,4.1,0,0,0-.636.739.8.8,0,0,0,.011.826.62.62,0,0,0,.562.32,1.949,1.949,0,0,0,1.1-.548c3.41-3.361,6.849-6.808,10.177-10.143l1.985-1.988c.94-.942.942-1.135.011-2.065-4.445-4.452-8.419-8.424-12.149-12.148" transform="translate(735.255 141.567)" fill="#000001"/>
    <g id="Group_63" data-name="Group 63">
      <path id="Path_30" data-name="Path 30" d="M342.258,162.465v-.033A25.845,25.845,0,0,0,334.87,144a26.65,26.65,0,0,0-18.044-8.3c-.418-.019-.832-.029-1.247-.029a26.571,26.571,0,0,0-18.432,7.372,26.955,26.955,0,0,0-8.432,18.035,26.656,26.656,0,0,0,7.027,19.418,26.952,26.952,0,0,0,18.622,8.8c.356.013.714.021,1.067.021a26.7,26.7,0,0,0,18.916-7.815,26.018,26.018,0,0,0,7.911-19.033m-9,17.8a24.959,24.959,0,0,1-17.75,7.326h-.025a25.107,25.107,0,1,1,.024-50.214h.032a25.126,25.126,0,0,1,17.72,42.889" transform="translate(727.173 136.769)" fill="#000001"/>
      <path id="Path_32" data-name="Path 32" d="M316.522,158.724l-1.985,1.988c-3.327,3.333-6.767,6.781-10.177,10.143a1.949,1.949,0,0,1-1.1.548.623.623,0,0,1-.562-.32.8.8,0,0,1-.011-.826,4.112,4.112,0,0,1,.636-.739l.028-.028q3.328-3.338,6.664-6.672l3.838-3.841c.171-.169.329-.342.5-.525.078-.084.157-.169.242-.26l.478-.513-.481-.508-.255-.272c-.169-.184-.328-.351-.491-.514l-3.983-3.985q-3.262-3.264-6.52-6.528l-.049-.047a4.4,4.4,0,0,1-.587-.666.692.692,0,0,1,.1-.967.746.746,0,0,1,.556-.288.909.909,0,0,1,.411.116,2.657,2.657,0,0,1,.6.494c3.732,3.722,7.7,7.7,12.149,12.146.931.932.929,1.125-.011,2.067" transform="translate(735.255 141.567)" fill="#000001"/>
    </g>
  </g>
</svg>
