<svg xmlns="http://www.w3.org/2000/svg" width="167.031" height="167.028" viewBox="0 0 167.031 167.028">
  <g id="Group_64" data-name="Group 64" transform="translate(-1184.244 -534.595)">
    <path id="Path_91" data-name="Path 91" d="M562.119,384.837A83.516,83.516,0,1,1,478.6,301.323a83.513,83.513,0,0,1,83.514,83.514" transform="translate(789.157 233.272)" fill="#1a1818"/>
    <path id="Path_92" data-name="Path 92" d="M516.6,377.284l-36.182-26.642-51.457-37.831.025,0-1.249-.915a.946.946,0,0,0-.174-.112,3.179,3.179,0,0,0-1.6-.266,2.911,2.911,0,0,0-1.435,1.054,1.488,1.488,0,0,0-.149.34h.011a3.666,3.666,0,0,0-.195,1.125,2.657,2.657,0,0,0,.858,1.717L513.6,381.142a32.652,32.652,0,0,1,12.649,19.51L419.7,321.969a2.882,2.882,0,0,0-1.929-.429,2.754,2.754,0,0,0-1.5,1.071,42.607,42.607,0,0,0-5.574,12.866,2.346,2.346,0,0,0,.856,2.787L525.179,422.09a45.735,45.735,0,0,1-3,7.5L412.839,351.341a2.275,2.275,0,0,0-2.573-.214,2.687,2.687,0,0,0-1.287,2.358,36.838,36.838,0,0,0,14.578,26.153l24.118,17.78.028.019,61.73,45.5,2.8,2.06,1.363,1,.179.131a3.761,3.761,0,0,0,1.331.15,3.173,3.173,0,0,0,1.249-.818l.03-.006a2.322,2.322,0,0,0,.858-1.929,2.954,2.954,0,0,0-1.071-1.717l-89.83-66.03a30.612,30.612,0,0,1-11.363-16.936l106.551,76.323a3.184,3.184,0,0,0,1.929.429,3.337,3.337,0,0,0,1.717-1.287,50.613,50.613,0,0,0,5.145-12.649,2.456,2.456,0,0,0-.858-2.572L415.838,335.262a58.976,58.976,0,0,1,3.217-7.718l108.911,80.395a2.638,2.638,0,0,0,2.785.215,2.464,2.464,0,0,0,1.29-2.358A38.251,38.251,0,0,0,516.6,377.284" transform="translate(797.25 239.208)" fill="#fff"/>
  </g>
</svg>
