<svg xmlns="http://www.w3.org/2000/svg" width="86.999" height="212.966" viewBox="0 0 86.999 212.966">
  <g id="Group_65" data-name="Group 65" transform="translate(-1288.5 617.083)">
    <path id="Union_1" data-name="Union 1" d="M23.026,212.324v.643S23.022,212.744,23.026,212.324Zm.107-69.063a43.516,43.516,0,0,1,.119-76.42l.089-57.5C24.353,46.9,44.4,59.244,50.117,62.009a43.51,43.51,0,0,1,4.6,85.244c-30.226,13.108-31.634,59.09-31.689,65.07Zm.218-140.3-.01,6.375Q23.258,6.263,23.351,2.963Zm0-2.255v2.1c0,.051,0,.1,0,.152Z" transform="translate(1288 -617.083)" fill="#fff"/>
    <g id="Group_64" data-name="Group 64" transform="translate(127.986 -1072.486)">
      <path id="Path_91" data-name="Path 91" d="M449.783,328.67a27.348,27.348,0,1,1-27.347-27.347,27.347,27.347,0,0,1,27.347,27.347" transform="translate(789.157 233.272)" fill="#1a1818"/>
      <path id="Path_92" data-name="Path 92" d="M444.221,333.05l-11.848-8.724-16.85-12.388h.008l-.409-.3a.31.31,0,0,0-.057-.037,1.041,1.041,0,0,0-.524-.087.953.953,0,0,0-.47.345.489.489,0,0,0-.049.111h0a1.2,1.2,0,0,0-.064.368.87.87,0,0,0,.281.562l28.995,21.412a10.692,10.692,0,0,1,4.142,6.389l-34.892-25.765a.943.943,0,0,0-.632-.14.9.9,0,0,0-.492.351,13.954,13.954,0,0,0-1.825,4.213.768.768,0,0,0,.28.913l37.208,27.449a14.976,14.976,0,0,1-.984,2.457l-35.8-25.624a.745.745,0,0,0-.843-.07.88.88,0,0,0-.421.772,12.063,12.063,0,0,0,4.774,8.564l7.9,5.822.009.006,20.214,14.9.918.675.446.328.059.043a1.23,1.23,0,0,0,.436.049,1.039,1.039,0,0,0,.409-.268l.01,0a.76.76,0,0,0,.281-.632.968.968,0,0,0-.351-.562l-29.416-21.622a10.024,10.024,0,0,1-3.721-5.546L445.836,352a1.042,1.042,0,0,0,.632.14,1.094,1.094,0,0,0,.562-.421,16.574,16.574,0,0,0,1.685-4.142.8.8,0,0,0-.281-.842l-37.208-27.45a19.322,19.322,0,0,1,1.054-2.527l35.664,26.326a.864.864,0,0,0,.912.07.807.807,0,0,0,.422-.772,12.526,12.526,0,0,0-5.055-9.337" transform="translate(782.464 228.362)" fill="#fff"/>
    </g>
  </g>
</svg>
